<svg xmlns="http://www.w3.org/2000/svg" viewBox="0 0 512 512" fill="none">
  <!-- Gradient background -->
  <defs>
    <linearGradient id="bg-gradient" x1="0%" y1="0%" x2="100%" y2="100%">
      <stop offset="0%" style="stop-color:#1a0b2e;stop-opacity:1" />
      <stop offset="100%" style="stop-color:#271447;stop-opacity:1" />
    </linearGradient>
    <linearGradient id="icon-gradient" x1="0%" y1="0%" x2="100%" y2="100%">
      <stop offset="0%" style="stop-color:#a78bfa;stop-opacity:1" />
      <stop offset="100%" style="stop-color:#c4b5fd;stop-opacity:1" />
    </linearGradient>
  </defs>

  <!-- Background -->
  <rect width="512" height="512" rx="115" fill="url(#bg-gradient)"/>

  <!-- Core strength icon - abstract muscular core -->
  <!-- Outer ring representing strength -->
  <circle cx="256" cy="256" r="180" fill="none" stroke="url(#icon-gradient)" stroke-width="12"/>

  <!-- Central hexagon representing core -->
  <path d="M 256 140 L 340 190 L 340 290 L 256 340 L 172 290 L 172 190 Z"
        fill="none" stroke="#34d399" stroke-width="14" stroke-linejoin="round"/>

  <!-- Inner strength lines -->
  <line x1="256" y1="180" x2="256" y2="240" stroke="#fbbf24" stroke-width="10" stroke-linecap="round"/>
  <line x1="220" y1="210" x2="220" y2="270" stroke="#fbbf24" stroke-width="10" stroke-linecap="round"/>
  <line x1="292" y1="210" x2="292" y2="270" stroke="#fbbf24" stroke-width="10" stroke-linecap="round"/>

  <!-- Bottom connecting elements -->
  <line x1="220" y1="300" x2="220" y2="330" stroke="#a78bfa" stroke-width="10" stroke-linecap="round"/>
  <line x1="256" y1="300" x2="256" y2="340" stroke="#a78bfa" stroke-width="10" stroke-linecap="round"/>
  <line x1="292" y1="300" x2="292" y2="330" stroke="#a78bfa" stroke-width="10" stroke-linecap="round"/>

  <!-- Central power symbol -->
  <circle cx="256" cy="256" r="25" fill="#34d399"/>
  <path d="M 256 235 L 256 255 M 246 256 L 266 256"
        stroke="#1a0b2e" stroke-width="6" stroke-linecap="round"/>
</svg>
